<?xml version="1.0" encoding="UTF-8" standalone="no"?>
<svg
   xmlns:dc="http://purl.org/dc/elements/1.1/"
   xmlns:cc="http://creativecommons.org/ns#"
   xmlns:rdf="http://www.w3.org/1999/02/22-rdf-syntax-ns#"
   xmlns:svg="http://www.w3.org/2000/svg"
   xmlns="http://www.w3.org/2000/svg"
   width="49.45652"
   height="44.8125"
   id="svg2"
   version="1.0">
  <defs
     id="defs4" />
  <metadata
     id="metadata7">
    <rdf:RDF>
      <cc:Work
         rdf:about="">
        <dc:format>image/svg+xml</dc:format>
        <dc:type
           rdf:resource="http://purl.org/dc/dcmitype/StillImage" />
        <dc:title></dc:title>
      </cc:Work>
    </rdf:RDF>
  </metadata>
  <g
     id="layer1"
     transform="translate(-38,-2.59375)">
    <path
       style="display:inline;overflow:visible;visibility:visible;fill:#ffffff;fill-opacity:1;stroke:#ffffff;stroke-width:2.9488;stroke-linejoin:miter;stroke-opacity:1;marker:none;enable-background:accumulate"
       d="M 37.982354,2.561399 V 4.9711232 45.028877 47.438601 L 40.01707,46.374567 77.71585,26.873221 77.384061,22.955147 40.01707,3.625433 Z M 40.981836,7.3808474 74.902118,25 40.981836,42.619153 Z"
       id="path2638" />
    <circle
       style="display:inline;overflow:visible;visibility:visible;fill:#ffffff;fill-opacity:1;stroke:#ffffff;stroke-width:2;stroke-linejoin:miter;stroke-opacity:1;marker:none;enable-background:accumulate"
       id="path2671"
       transform="translate(6.4565219)"
       cx="76"
       cy="25"
       r="4" />
  </g>
  <path
     style="fill:#ffffff;stroke:#ffffff;stroke-width:0.074436"
     d="M 2.8260143,5.7812114 C 2.6804632,6.5322244 2.7937428,7.3330571 2.7485198,8.1015664 2.7018059,18.43681 2.7265569,28.772219 2.7201232,39.107538 2.822839,39.678237 3.4078339,39.305265 3.6984199,39.130142 14.127388,33.689381 24.55634,28.248586 34.98528,22.807764 35.402002,22.498457 34.923107,22.090536 34.594261,22.014522 24.138246,16.563413 13.694897,11.086036 3.2255269,5.6631509 3.0472978,5.6185012 2.9553169,5.6464843 2.8260143,5.7812114 Z"
     id="path10" />
</svg>
