<?xml version="1.0" encoding="UTF-8" standalone="no"?>
<svg
   xmlns:dc="http://purl.org/dc/elements/1.1/"
   xmlns:cc="http://creativecommons.org/ns#"
   xmlns:rdf="http://www.w3.org/1999/02/22-rdf-syntax-ns#"
   xmlns:svg="http://www.w3.org/2000/svg"
   xmlns="http://www.w3.org/2000/svg"
   viewBox="0 0 53.668637 43.000019"
   width="53.668636"
   height="43.000019"
   id="svg2"
   version="1.0">
  <defs
     id="defs4" />
  <metadata
     id="metadata7">
    <rdf:RDF>
      <cc:Work
         rdf:about="">
        <dc:format>image/svg+xml</dc:format>
        <dc:type
           rdf:resource="http://purl.org/dc/dcmitype/StillImage" />
        <dc:title></dc:title>
      </cc:Work>
    </rdf:RDF>
  </metadata>
  <g
     id="layer1"
     transform="translate(-30.953923,-3.5)">
    <g
       id="g2560"
       transform="translate(26.5,-39.5)"
       style="fill:#ffffff;stroke:#ffffff">
      <path
         style="fill:#ffffff;fill-opacity:1;fill-rule:evenodd;stroke:#ffffff;stroke-width:3;stroke-linecap:butt;stroke-linejoin:miter;stroke-opacity:1"
         d="m 7.625,44.5 2,2.4375 c 0,0 5.65625,7.000049 5.65625,17.5625 0,10.562451 -5.65625,17.5625 -5.65625,17.5625 l -2,2.4375 h 3.15625 14 c 2.408076,10e-7 7.689699,0.02451 13.625,-2.40625 5.935301,-2.430764 12.536536,-7.343266 17.6875,-16.875 L 54.78125,64.5 56.09375,63.78125 C 45.790637,44.71559 29.537824,44.5 24.78125,44.5 h -14 z m 5.875,3 h 11.28125 c 4.684173,0 18.28685,-0.130207 27.96875,17 -4.766786,8.429075 -10.521281,12.68391 -15.71875,14.8125 -5.360661,2.195424 -9.841925,2.187501 -12.25,2.1875 h -11.25 c 1.873588,-3.108434 4.75,-9.04935 4.75,-17 0,-7.973354 -2.908531,-13.900185 -4.78125,-17 z"
         id="path4973" />
    </g>
    <rect
       style="fill:#ffffff;stroke:#ffffff"
       id="rect31"
       width="1.5542096"
       height="1.434683"
       x="81.039543"
       y="24.28125" />
    <path
       style="fill:#ffffff;stroke:#ffffff;stroke-width:0.0441942"
       d="m 8.0172558,2.7343533 c -0.7032661,0.00456 -1.4070831,-0.00602 -2.1100129,0.012688 -0.304658,0.054995 -0.3055048,0.4181665 -0.1361261,0.6136222 1.4730501,2.5451358 2.6703558,5.2365383 3.4403541,8.0782795 1.3640221,4.928746 1.5243321,10.118879 0.4843866,15.126858 -0.6155271,2.989355 -1.6636881,5.902257 -3.0865267,8.598486 -0.268423,0.563014 -0.6231424,1.09769 -0.8891317,1.664517 -0.094216,0.288715 0.230923,0.448172 0.4737018,0.411704 3.5964309,0.0494 7.1937151,0.0051 10.7904511,0.004 1.856293,-0.01281 3.723117,0.01909 5.561193,-0.285354 4.629345,-0.663619 9.111004,-2.433052 12.877514,-5.217097 3.845788,-2.842427 6.971823,-6.579066 9.399842,-10.68128 0.185837,-0.364775 0.48161,-0.684907 0.584611,-1.083319 C 45.125089,19.366044 44.726355,18.805985 44.387948,18.220979 42.077748,14.47015 39.161265,11.059174 35.646642,8.3869781 31.662846,5.3610685 26.842206,3.4782514 21.873337,2.9343492 19.875882,2.689756 17.85792,2.7818787 15.85059,2.7477242 13.239486,2.7401622 10.628373,2.7333098 8.0172558,2.7343533 Z"
       id="path126"
       transform="translate(34.125,5)" />
  </g>
</svg>
