<?xml version="1.0" encoding="UTF-8" standalone="no"?>
<svg
   xmlns:dc="http://purl.org/dc/elements/1.1/"
   xmlns:cc="http://creativecommons.org/ns#"
   xmlns:rdf="http://www.w3.org/1999/02/22-rdf-syntax-ns#"
   xmlns:svg="http://www.w3.org/2000/svg"
   xmlns="http://www.w3.org/2000/svg"
   id="svg2"
   width="168.30988pt"
   height="124.4772pt"
   version="1.0">
  <metadata
     id="metadata7">
    <rdf:RDF>
      <cc:Work
         rdf:about="">
        <dc:format>image/svg+xml</dc:format>
        <dc:type
           rdf:resource="http://purl.org/dc/dcmitype/StillImage" />
        <dc:title></dc:title>
      </cc:Work>
    </rdf:RDF>
  </metadata>
  <defs
     id="defs5" />
  <path
     id="rect2193"
     style="fill:none;fill-opacity:1;fill-rule:evenodd;stroke:#ffffff;stroke-width:7.5;stroke-linecap:butt;stroke-linejoin:round;stroke-miterlimit:4;stroke-dashoffset:0;stroke-opacity:1"
     d="m 38.221626,162.22319 c -0.12501,0.005 37.44298,-7.43572 37.44298,-79.24997 0,-72.521227 -37.44574,-79.2503044 -37.44298,-79.2499724 C 98.708806,10.987274 138.10261,0.69996311 179.73229,82.973226 148.69124,155.71924 107.98218,159.17218 38.221626,162.22319 Z" />
  <circle
     style="fill:none;fill-opacity:1;fill-rule:evenodd;stroke:none;stroke-width:7.5;stroke-linecap:round;stroke-linejoin:round;stroke-miterlimit:4;stroke-dasharray:none;stroke-dashoffset:0;stroke-opacity:1"
     id="path2247"
     cx="200.51064"
     cy="82.973221"
     r="20.152544" />
  <path
     id="path1315"
     style="fill:none;fill-opacity:1;fill-rule:evenodd;stroke:#ffffff;stroke-width:7.5;stroke-linecap:round;stroke-linejoin:round;stroke-miterlimit:4;stroke-dasharray:none;stroke-dashoffset:0;stroke-opacity:1"
     d="M 1.0420461,160.31358 C 0.90511612,160.31858 42.054226,153.05703 42.054226,82.973223 42.054226,12.199465 1.0390161,5.6325346 1.0420461,5.6328546" />
  <path
     style="fill:#ffffff;stroke:#ffffff;stroke-width:0.353553"
     d="m 56.916204,9.2999358 c -1.595361,0.1097415 0.187132,1.7716052 0.696749,2.2829052 12.394608,12.834379 17.762266,30.714439 20.155756,48.027568 1.771588,13.118641 1.707294,26.460007 0.809392,39.640877 -1.792438,18.192954 -6.296345,37.075104 -18.072433,51.546574 -1.657009,2.25181 -4.083433,4.03445 -5.462192,6.41376 1.393904,0.8942 3.461455,0.12994 5.081158,0.27848 21.946969,-1.50766 44.601866,-3.59907 64.637056,-13.4182 19.43932,-9.43087 33.66774,-26.91563 43.56937,-45.706474 2.44606,-5.022982 5.32313,-9.940281 7.14706,-15.2115 -2.64043,-6.447541 -6.57231,-12.31063 -10.0956,-18.30813 C 154.56572,47.432917 140.77963,30.828184 121.94673,21.811512 106.89185,14.328779 89.989334,12.17748 73.456223,10.619423 67.952122,10.109351 62.444965,9.4440046 56.916204,9.2999358 Z"
     id="path24" />
  <path
     style="fill:#ffffff;stroke:#ffffff;stroke-width:0.353553"
     d="m 199.74418,66.528629 c -8.79534,0.09965 -16.21571,8.388132 -15.67167,17.102455 0.0397,6.303311 4.2789,11.962939 9.96855,14.425945 7.77899,3.726781 18.15392,-0.256629 21.38722,-8.292623 3.67398,-7.295621 0.58787,-16.892749 -6.49171,-20.865865 -2.75647,-1.640456 -5.98441,-2.485903 -9.19239,-2.369912 z"
     id="path26" />
  <path
     style="fill:#ffffff;stroke:#ffffff;stroke-width:0.0220971"
     d="m 55.454111,8.9304684 c -0.264071,-0.00318 -0.40686,0.3556114 -0.212209,0.5350776 0.223799,0.218495 0.44374,0.4482142 0.700115,0.627911 0.211503,0.1013 0.456253,-0.08675 0.444056,-0.3127255 -0.01839,-0.1152008 0.04446,-0.2138465 0.129704,-0.2897351 0.162942,-0.1819923 0.01344,-0.4890703 -0.226098,-0.4905809 -0.284904,-0.018734 -0.553493,-0.046245 -0.835568,-0.069947 z"
     id="path28" />
  <path
     style="fill:#ffffff;stroke:#ffffff;stroke-width:0.0220971"
     d="m 54.98626,156.50294 c -0.248763,0.0909 -0.411099,0.32392 -0.619582,0.47841 -0.191978,0.18204 -0.418629,0.33614 -0.576506,0.54943 -0.12173,0.20802 0.06432,0.47659 0.297401,0.46255 0.463811,-0.009 0.929939,-0.0441 1.380982,-0.073 0.249126,-0.0483 0.318397,-0.41372 0.105522,-0.55096 -0.116432,-0.0802 -0.248822,-0.13291 -0.371896,-0.20173 0.100802,-0.16112 0.240488,-0.38569 0.08245,-0.55725 -0.05956,-0.0956 -0.193512,-0.12587 -0.29837,-0.10747 z"
     id="path30" />
</svg>
